<svg xmlns="http://www.w3.org/2000/svg" viewBox="0 0 392.564 392.564"><g fill="#fff"><path d="M197.042 303.66c-62.836 0-113.713-50.941-113.713-113.713S134.271 76.169 197.042 76.169c30.061 0 57.277 11.766 77.576 30.772V31.563c0-5.301-4.331-9.632-9.632-9.632H86.691v54.044c0 6.012-4.848 10.925-10.925 10.925h-53.98v274.23c0 5.301 4.331 9.632 9.632 9.632h233.438c5.301 0 9.632-4.331 9.632-9.632v-67.362l-13.705-9.762c-18.1 12.414-40.015 19.654-63.741 19.654z"/><path d="M197.042 98.02c-50.683 0-91.927 41.244-91.927 91.927s41.244 91.927 91.927 91.927 91.927-41.244 91.927-91.927-41.244-91.927-91.927-91.927zM64.905 37.252L37.236 64.921h27.669z"/></g><g fill="#56ace0"><path d="M363.248 286.399l-64.453-45.964a112.292 112.292 0 0 1-20.622 29.026l64.388 45.899c8.016 5.689 19.135 3.879 24.889-4.202 5.689-7.951 3.815-19.07-4.202-24.759z"/><circle cx="197.042" cy="189.947" r="71.176"/></g><g fill="#194f82"><path d="M170.02 207.789c6.335 0 11.572-2.521 15.58-7.564l8.275 8.598c-6.594 7.434-14.352 11.119-23.273 11.119s-16.291-2.78-22.109-8.404c-5.818-5.624-8.663-12.735-8.663-21.333 0-8.598 2.909-15.774 8.792-21.527 5.883-5.689 13.123-8.663 21.657-8.663 9.503 0 17.455 3.62 23.855 10.925l-8.016 9.115c-4.073-5.107-9.18-7.628-15.321-7.628-4.848 0-9.051 1.616-12.541 4.784s-5.172 7.499-5.172 12.8c0 5.43 1.616 9.762 4.848 12.994 3.426 3.168 7.369 4.784 12.088 4.784zm55.467-9.567l14.739-36.913h13.964l-23.337 57.923h-10.99l-23.337-57.923h13.964l14.997 36.913z"/><path d="M375.919 268.622l-69.172-49.325c2.457-9.438 3.943-19.265 3.943-29.35 0-20.105-5.236-38.853-14.352-55.273V31.563c0-17.39-14.158-31.547-31.547-31.547H84.299c-8.404 0-16.291 3.232-22.238 9.18L9.18 62.076C3.232 68.024 0 75.91 0 84.314v276.687c0 17.39 14.158 31.547 31.547 31.547h233.438c17.39 0 31.547-14.158 31.547-31.547V309.22l33.487 23.855c17.842 12.735 42.602 8.598 55.273-9.244 12.607-17.715 8.405-42.474-9.373-55.209zm-8.468 42.666c-5.689 8.016-16.873 9.891-24.889 4.202l-64.388-45.899c8.339-8.469 15.192-18.295 20.622-29.026l64.453 45.964c8.016 5.559 9.89 16.678 4.202 24.759zm-92.833 49.713c0 5.301-4.331 9.632-9.632 9.632H31.547c-5.301 0-9.632-4.331-9.632-9.632V86.706H75.96c6.012 0 10.925-4.848 10.925-10.925V21.737h178.166c5.301 0 9.632 4.331 9.632 9.632v75.442c-20.299-19.006-47.515-30.772-77.576-30.772-62.836 0-113.713 50.941-113.713 113.713s50.812 113.842 113.648 113.842c23.725 0 45.77-7.24 63.935-19.717l13.705 9.762-.064 67.362zM64.905 37.252v27.669H37.236l27.669-27.669zm132.137 244.557c-50.683 0-91.927-41.244-91.927-91.927s41.244-91.927 91.927-91.927 91.927 41.244 91.927 91.927-41.244 91.927-91.927 91.927z"/></g><path d="M43.572 260.024h36.396c6.012 0 10.925 4.848 10.925 10.925 0 6.012-4.848 10.925-10.925 10.925H43.572v21.851h14.61c6.012 0 10.925 4.848 10.925 10.925 0 6.012-4.848 10.925-10.925 10.925h-14.61v12.541c0 6.012 4.848 10.925 10.925 10.925h187.41c6.012 0 10.925-4.848 10.925-10.925v-49.002c-16.485 9.244-35.491 14.675-55.79 14.675-62.836 0-113.713-50.941-113.713-113.713S134.271 76.298 197.042 76.298c20.299 0 39.24 5.495 55.79 14.804v-36.46c0-6.012-4.848-10.925-10.925-10.925H93.867c-2.715 0-5.236 1.034-7.176 2.78V75.91c0 6.012-4.848 10.925-10.925 10.925H46.352c-1.745 2.004-2.78 4.59-2.78 7.176v166.013z" fill="#ffc10d"/></svg>