<svg xmlns="http://www.w3.org/2000/svg" viewBox="0 0 480 480"><path d="M336 424V280c0-26.512-42.984-48-96-48s-96 21.488-96 48v144c0 26.512 42.984 48 96 48s96-21.488 96-48z" fill="#ff8a5b"/><path d="M144 168h192c26.512 0 48-21.488 48-48s-21.488-48-48-48c-2.744 0-5.416.28-8.04.728.008-.248.04-.48.04-.728 0-35.344-28.656-64-64-64-25.176 0-46.896 14.576-57.344 35.712C202.248 41.416 197.312 40 192 40c-17.672 0-32 14.328-32 32 0 .992.2 1.928.288 2.896C155.2 73.056 149.728 72 144 72c-26.512 0-48 21.488-48 48s21.488 48 48 48z" fill="#fceade"/><g fill="#2b2d42"><path d="M88 120c0 30.88 25.12 56 56 56h88v48.208c-54.424 2.144-96 25.84-96 55.792v144c0 31.4 45.68 56 104 56s104-24.6 104-56V280c0-29.944-41.576-53.648-96-55.792V176h88c30.88 0 56-25.12 56-56s-25.12-56-56-56h-.44C331.568 28.048 301 0 264 0c-25.04 0-47.752 12.72-60.88 33.656A38.177 38.177 0 0 0 192 32c-19.56 0-35.888 14.112-39.336 32.688A55.094 55.094 0 0 0 144 64c-30.88 0-56 25.12-56 56zm152 344c-51.856 0-88-21.08-88-40v-17.848C170.256 421.784 202.472 432 240 432s69.744-10.216 88-25.848V424c0 18.92-36.144 40-88 40zm0-48c-51.856 0-88-21.08-88-40v-17.848C170.256 373.784 202.472 384 240 384s69.744-10.216 88-25.848V376c0 18.92-36.144 40-88 40zm0-48c-51.856 0-88-21.08-88-40v-17.848C170.256 325.784 202.472 336 240 336s69.744-10.216 88-25.848V328c0 18.92-36.144 40-88 40zm88-88c0 18.92-36.144 40-88 40s-88-21.08-88-40c0-17.928 32.472-37.76 80-39.8V272h-24v16h64v-16h-24v-31.8c47.528 2.04 80 21.872 80 39.8zM144 80c4.568 0 9.136.816 13.568 2.424a7.975 7.975 0 0 0 7.616-1.192 7.976 7.976 0 0 0 3.072-7.064L168 72c0-13.232 10.768-24 24-24 3.688 0 7.384.944 10.968 2.808a7.98 7.98 0 0 0 6.176.504 8.032 8.032 0 0 0 4.68-4.056C223.36 27.976 242.584 16 264 16c30.88 0 56 25.12 56 55.784-.016.192-.04.752-.04.944a8.007 8.007 0 0 0 2.84 6.112 8.04 8.04 0 0 0 6.504 1.776C331.728 80.2 333.92 80 336 80c22.056 0 40 17.944 40 40s-17.944 40-40 40H144c-22.056 0-40-17.944-40-40s17.944-40 40-40zm216 280h16v16h-16zm32 0h16v16h-16zm32 0h16v16h-16zm32 0h16v16h-16zm0-32h16v16h-16zm0-32h16v16h-16zm0-32h16v16h-16zm0-32h16v16h-16zm0-32h16v16h-16zm0-32h16v16h-16zm0-32h16v16h-16zm0-32h16v16h-16zm0-32h16v16h-16zm0-32h16v16h-16zm-32 0h16v16h-16zm-32 0h16v16h-16zm-32 0h16v16h-16zM104 360h16v16h-16zm-32 0h16v16H72zm-32 0h16v16H40zm-32 0h16v16H8zm0-32h16v16H8zm0-32h16v16H8zm0-32h16v16H8zm0-32h16v16H8zm0-32h16v16H8zm0-32h16v16H8zm0-32h16v16H8zm0-32h16v16H8zm0-32h16v16H8zm0-32h16v16H8zm32 0h16v16H40zm32 0h16v16H72zm32 0h16v16h-16z"/><path d="M328 96h16v16h-16zm0 32h16v16h-16zm-32 0h16v16h-16z"/></g></svg>