<svg xmlns="http://www.w3.org/2000/svg" viewBox="0 0 395 395"><path d="M395 279.46V382.5c0 4.14-3.36 7.5-7.5 7.5H7.5c-4.15 0-7.5-3.36-7.5-7.5V279.46c0-4.14 3.35-7.5 7.5-7.5h21.87v-15.44H7.5c-4.15 0-7.5-3.36-7.5-7.5V145.98c0-4.14 3.35-7.5 7.5-7.5h21.87v-15.44H7.5c-4.15 0-7.5-3.36-7.5-7.5V12.5C0 8.36 3.35 5 7.5 5h380c4.14 0 7.5 3.36 7.5 7.5v103.04c0 4.14-3.36 7.5-7.5 7.5h-21.87v15.44h21.87c4.14 0 7.5 3.36 7.5 7.5v103.04c0 4.14-3.36 7.5-7.5 7.5h-21.87v15.44h21.87c4.14 0 7.5 3.36 7.5 7.5zM380 375v-88.04h-39.17V375H380zm0-133.48v-88.04h-39.17v88.04H380zm0-133.48V20h-39.17v88.04H380zm-29.37 163.92v-15.44H44.37v15.44h306.26zm0-133.48v-15.44H44.37v15.44h306.26zM325.83 375v-88.04h-39.01V375h39.01zm0-133.48v-88.04h-39.01v88.04h39.01zm0-133.48V20h-39.01v88.04h39.01zM271.82 375v-88.04H15V375h256.82zm0-133.48v-88.04H15v88.04h256.82zm0-133.48V20H15v88.04h256.82z"/><path fill="#3dd0f2" d="M340.83 286.96H380V375h-39.17zm0-133.48H380v88.04h-39.17zm0-133.48H380v88.04h-39.17zm-69.01 266.96V375H15v-88.04h256.82zM75 330.98c0-1.97-.8-3.91-2.2-5.3-1.4-1.4-3.33-2.2-5.3-2.2-1.98 0-3.91.8-5.31 2.2-1.39 1.4-2.19 3.33-2.19 5.3s.8 3.91 2.19 5.3a7.55 7.55 0 0 0 5.31 2.2 7.51 7.51 0 0 0 7.5-7.5zm-24 0c0-1.97-.8-3.9-2.2-5.3-1.4-1.4-3.33-2.2-5.3-2.2-1.98 0-3.91.8-5.31 2.2a7.56 7.56 0 0 0-2.19 5.3c0 1.98.8 3.91 2.19 5.3a7.55 7.55 0 0 0 5.31 2.2c1.97 0 3.9-.8 5.3-2.2 1.4-1.39 2.2-3.33 2.2-5.3zm220.82-177.5v88.04H15v-88.04h256.82zM75 197.5c0-1.97-.8-3.91-2.2-5.3-1.4-1.4-3.33-2.2-5.3-2.2-1.98 0-3.91.8-5.31 2.2a7.56 7.56 0 0 0-2.19 5.3c0 1.98.8 3.91 2.19 5.3a7.55 7.55 0 0 0 5.31 2.2 7.51 7.51 0 0 0 7.5-7.5zm-24 0c0-1.97-.8-3.91-2.2-5.3-1.4-1.4-3.33-2.2-5.3-2.2-1.98 0-3.91.8-5.31 2.2-1.39 1.39-2.19 3.33-2.19 5.3s.8 3.91 2.19 5.3a7.55 7.55 0 0 0 5.31 2.2c1.97 0 3.9-.8 5.3-2.2 1.4-1.39 2.2-3.33 2.2-5.3zM271.82 20v88.04H15V20h256.82zM75 64.02c0-1.97-.8-3.91-2.2-5.3-1.4-1.4-3.33-2.2-5.3-2.2-1.98 0-3.91.8-5.31 2.2a7.56 7.56 0 0 0-2.19 5.3c0 1.97.8 3.91 2.19 5.3a7.55 7.55 0 0 0 5.31 2.2c1.97 0 3.9-.8 5.3-2.2 1.4-1.39 2.2-3.33 2.2-5.3zm-24 0c0-1.97-.8-3.91-2.2-5.3-1.4-1.4-3.33-2.2-5.3-2.2-1.98 0-3.91.8-5.31 2.2a7.56 7.56 0 0 0-2.19 5.3c0 1.97.8 3.91 2.19 5.3a7.55 7.55 0 0 0 5.31 2.2c1.97 0 3.9-.8 5.3-2.2 1.4-1.39 2.2-3.33 2.2-5.3z"/><path d="M72.8 58.72c1.4 1.39 2.2 3.33 2.2 5.3 0 1.97-.8 3.91-2.2 5.3-1.4 1.4-3.33 2.2-5.3 2.2-1.98 0-3.91-.8-5.31-2.2a7.56 7.56 0 0 1-2.19-5.3c0-1.97.8-3.91 2.19-5.3a7.55 7.55 0 0 1 5.31-2.2c1.97 0 3.9.8 5.3 2.2zm0 133.48c1.4 1.39 2.2 3.33 2.2 5.3a7.51 7.51 0 0 1-7.5 7.5c-1.98 0-3.91-.8-5.31-2.2a7.543 7.543 0 0 1-2.19-5.3c0-1.97.8-3.91 2.19-5.3a7.55 7.55 0 0 1 5.31-2.2c1.97 0 3.9.8 5.3 2.2zm0 133.48c1.4 1.39 2.2 3.33 2.2 5.3a7.51 7.51 0 0 1-7.5 7.5c-1.98 0-3.91-.8-5.31-2.2-1.39-1.39-2.19-3.33-2.19-5.3s.8-3.9 2.19-5.3a7.55 7.55 0 0 1 5.31-2.2c1.97 0 3.9.8 5.3 2.2zm-24-266.96c1.4 1.39 2.2 3.33 2.2 5.3 0 1.97-.8 3.91-2.2 5.3-1.4 1.4-3.33 2.2-5.3 2.2-1.98 0-3.91-.8-5.31-2.2a7.56 7.56 0 0 1-2.19-5.3c0-1.97.8-3.91 2.19-5.3a7.55 7.55 0 0 1 5.31-2.2c1.97 0 3.9.8 5.3 2.2zm0 133.48c1.4 1.39 2.2 3.33 2.2 5.3s-.8 3.91-2.2 5.3c-1.4 1.4-3.33 2.2-5.3 2.2-1.98 0-3.91-.8-5.31-2.2-1.39-1.39-2.19-3.33-2.19-5.3s.8-3.91 2.19-5.3a7.55 7.55 0 0 1 5.31-2.2c1.97 0 3.9.8 5.3 2.2zm0 133.48c1.4 1.4 2.2 3.33 2.2 5.3s-.8 3.91-2.2 5.3c-1.4 1.4-3.33 2.2-5.3 2.2-1.98 0-3.91-.8-5.31-2.2a7.543 7.543 0 0 1-2.19-5.3c0-1.97.8-3.91 2.19-5.3a7.55 7.55 0 0 1 5.31-2.2c1.97 0 3.9.8 5.3 2.2z"/></svg>