<svg xmlns="http://www.w3.org/2000/svg" viewBox="0 0 512 512"><path fill="#e6e5e5" d="M343.524 444.182H224.01l10.844-60.933h97.79z"/><path fill="#cccbca" d="M343.524 444.182l-10.88-60.933h-97.79l78.214 60.933z"/><path d="M375.496 453.126H192.01v-3.359c0-1.421.522-2.852 1.628-3.963a5.692 5.692 0 0 1 3.945-1.626h172.319a5.73 5.73 0 0 1 3.978 1.626c1.055 1.111 1.615 2.542 1.615 3.963v3.359z" fill="#d9d8d7"/><path d="M498.954 343.853v28.936c0 5.76-4.736 10.46-10.527 10.46H79.091c-5.729 0-10.486-4.7-10.486-10.46v-28.936h430.349z" fill="#e6e5e5"/><path d="M498.954 343.853V69.091c0-5.737-4.726-10.483-10.527-10.483H79.076c-5.747 0-10.447 4.746-10.447 10.483v274.765h430.326v-.003z" fill="#242d3c"/><path fill="#fff" d="M90.317 80.347h386.867v241.741H90.317z"/><path d="M109.844 237.106h102.912v65.457H109.844zm0-84.967h102.912v65.449H109.844zm122.476 84.967h102.912v65.457H232.32zm0-84.967h102.912v65.449H232.32zm122.47 84.967h102.912v65.457H354.79zm0-84.967h102.912v65.449H354.79zM109.842 99.864H457.72v32.727H109.842z" fill="#f15424"/><path d="M180.664 436.566c0 9.111-7.452 16.561-16.558 16.561H16.566C7.465 453.126 0 445.677 0 436.566V207.715c0-9.116 7.468-16.563 16.566-16.563h147.538c9.106 0 16.558 7.447 16.558 16.563v228.851h.002z" fill="#242d3c"/><path d="M90.317 214.266c-3.638 0-6.52-2.9-6.52-6.559 0-3.574 2.883-6.548 6.52-6.548 3.612 0 6.579 2.972 6.579 6.548 0 3.658-2.97 6.559-6.579 6.559z" fill="#3e4959"/><path d="M90.335 210.008a2.277 2.277 0 0 1-2.284-2.294 2.29 2.29 0 0 1 2.284-2.291 2.3 2.3 0 0 1 2.299 2.291 2.288 2.288 0 0 1-2.299 2.294zM15.073 224.28h150.566v195.738H15.073z" fill="#fff"/><path d="M111.424 436.566c0-2.895-2.376-5.274-5.271-5.274H74.527c-2.893 0-5.274 2.378-5.274 5.274 0 2.893 2.378 5.274 5.274 5.274h31.626c2.898-.001 5.271-2.381 5.271-5.274z" fill="#3e4959"/><path d="M27.249 236.44h126.182V266H27.249zm0 42.24h58.826v58.235H27.249zm67.363 0h58.826v58.235H94.612zm-67.363 70.912h58.826v58.232H27.249zm67.363 0h58.826v58.232H94.612z" fill="#f15424"/><path d="M498.954 266.013h-75.84c-7.176 0-13.061 5.875-13.061 13.066v161.252c0 7.186 5.885 13.061 13.061 13.061h75.84c7.181 0 13.046-5.875 13.046-13.061V279.08c0-7.191-5.865-13.067-13.046-13.067z" fill="#242d3c"/><path fill="#fff" d="M417.434 294.348h87.194v130.714h-87.194z"/><path d="M452.972 443.275a3.524 3.524 0 0 1-3.528-3.517v-1.057a3.52 3.52 0 0 1 3.528-3.517h16.159c1.915 0 3.484 1.582 3.484 3.517v1.057c0 1.93-1.569 3.517-3.484 3.517h-16.159zm11.345-163.1c0 1.812-1.439 3.282-3.254 3.282-1.818 0-3.318-1.469-3.318-3.282 0-1.81 1.5-3.3 3.318-3.3s3.254 1.49 3.254 3.3z" fill="#3e4959"/><path d="M462.351 280.175c0 .717-.586 1.306-1.288 1.306-.763 0-1.349-.586-1.349-1.306 0-.722.586-1.324 1.349-1.324.702.003 1.288.602 1.288 1.324z" fill="#242d3c"/><path d="M424.064 300.952h73.951v22.036h-73.951zm0 28.672h73.951v41.114h-73.951zm0 47.719h73.951v41.114h-73.951z" fill="#f15424"/></svg>