<svg xmlns="http://www.w3.org/2000/svg" viewBox="0 0 512 512"><path fill="#2fb49e" d="M280.791 106.043L71.542 257.219V512h418.457V257.219z"/><path d="M64.576 0C41.057 0 22.001 19.057 22.001 42.58h85.153V0H64.576z" fill="#ff7059"/><path d="M454.41 42.58v344.855H107.151V42.58C107.151 19.057 88.087 0 64.576 0h347.261c23.506 0 42.573 19.057 42.573 42.58z" fill="#e6eaee"/><path fill="#ff7059" d="M149.043 95.027h126.131v126.131H149.043z"/><g fill="#f6f8fb"><path d="M212.109 179.581c-11.863 0-21.496-9.638-21.496-21.499 0-11.853 9.633-21.499 21.496-21.499 11.86 0 21.494 9.649 21.494 21.499.002 11.861-9.631 21.499-21.494 21.499zm0-35.829c-7.91 0-14.321 6.433-14.321 14.328 0 7.905 6.41 14.339 14.321 14.339 7.908 0 14.344-6.433 14.344-14.339-.001-7.892-6.434-14.328-14.344-14.328z"/><path d="M212.109 197.499c-21.719 0-39.414-17.687-39.414-39.419 0-21.734 17.695-39.406 39.414-39.406 21.737 0 39.419 17.672 39.419 39.406a3.579 3.579 0 1 1-7.157 0c0-17.782-14.467-32.248-32.261-32.248-17.787 0-32.243 14.467-32.243 32.248 0 17.784 14.456 32.248 32.243 32.248 5.681 0 11.244-1.5 16.118-4.319a3.58 3.58 0 0 1 4.895 1.3 3.597 3.597 0 0 1-1.285 4.908 39.545 39.545 0 0 1-19.729 5.282z"/><path d="M238.989 179.581c-3.356 0-6.5-1.306-8.876-3.668a12.532 12.532 0 0 1-3.661-8.87v-8.96a3.57 3.57 0 0 1 3.581-3.576 3.567 3.567 0 0 1 3.571 3.576v8.96c0 1.434.566 2.78 1.577 3.794a5.322 5.322 0 0 0 3.809 1.582c1.444 0 2.79-.556 3.799-1.582a5.317 5.317 0 0 0 1.582-3.794v-8.96c0-1.981 1.6-3.576 3.576-3.576a3.569 3.569 0 0 1 3.581 3.576v8.96c0 3.354-1.318 6.5-3.671 8.87a12.468 12.468 0 0 1-8.868 3.668z"/></g><path d="M299.213 95.027h120.269v13.494H299.213zm0 37.535h120.269v13.494H299.213zm0 37.524h120.269v13.494H299.213zm0 37.556h120.269v13.504H299.213zm-150.17 37.555h270.438v13.504H149.043zm0 37.529h135.209v13.501H149.043z" fill="#aab5bd"/><path d="M489.999 257.219V512L280.791 384.609zm-209.208 127.39L71.542 512V257.219z" fill="#4bd6c0"/><path fill="#2fb49e" d="M489.999 512H71.542l209.249-127.391z"/></svg>