<svg xmlns="http://www.w3.org/2000/svg" viewBox="0 0 491.52 491.52"><path d="M346.017 0H16.265C7.282 0 0 7.282 0 16.265v329.752c0 8.982 7.282 16.265 16.265 16.265h329.752c8.981 0 16.265-7.283 16.265-16.265V16.265C362.281 7.282 354.998 0 346.017 0z" fill="#3a556a"/><path d="M26.348 67.328h309.606v268.595H26.348zm0-43.96h221.389v18.724H26.348z" fill="#fff"/><circle cx="268.186" cy="32.732" r="9.364" fill="#fcd462"/><circle cx="297.37" cy="32.732" r="9.364" fill="#44c4a1"/><circle cx="326.569" cy="32.732" r="9.364" fill="#e56353"/><path fill="#3a556a" d="M242.074 295.941h230.912v121.201H242.074z"/><path d="M481.791 223.539H233.266c-5.373 0-9.728 4.364-9.728 9.748v62.939c0 5.383 4.355 9.748 9.728 9.748h248.525c5.373 0 9.729-4.365 9.729-9.748v-62.939c0-5.384-4.356-9.748-9.729-9.748z" fill="#64798a"/><path fill="#44c4a1" d="M355.738 238.182h121.144v53.14H355.738z"/><path fill="#3ea69b" d="M355.738 281.579h121.144v9.743H355.738z"/><ellipse cx="259.794" cy="264.755" rx="13.788" ry="13.819" fill="#e56353"/><ellipse cx="308.275" cy="264.755" rx="13.788" ry="13.819" fill="#fcd462"/><path d="M481.791 316.312H233.266c-5.373 0-9.728 4.364-9.728 9.748v62.939c0 5.383 4.355 9.748 9.728 9.748h248.525c5.373 0 9.729-4.365 9.729-9.748V326.06c0-5.384-4.356-9.748-9.729-9.748z" fill="#64798a"/><path fill="#44c4a1" d="M355.738 330.957h121.144v53.135H355.738z"/><path fill="#3ea69b" d="M355.738 374.374h121.144v9.743H355.738z"/><ellipse cx="259.794" cy="357.53" rx="13.788" ry="13.819" fill="#e56353"/><ellipse cx="308.275" cy="357.53" rx="13.788" ry="13.819" fill="#fcd462"/><path d="M481.791 409.085H233.266c-5.373 0-9.728 4.365-9.728 9.748v62.939c0 5.383 4.355 9.748 9.728 9.748h248.525c5.373 0 9.729-4.365 9.729-9.748v-62.939c0-5.383-4.356-9.748-9.729-9.748z" fill="#64798a"/><path fill="#44c4a1" d="M355.738 423.731h121.144v53.135H355.738z"/><path fill="#3ea69b" d="M355.738 467.149h121.144v9.743H355.738z"/><ellipse cx="259.794" cy="450.304" rx="13.788" ry="13.819" fill="#e56353"/><ellipse cx="308.275" cy="450.304" rx="13.788" ry="13.819" fill="#fcd462"/><path d="M40.648 160.866c0 42.702 34.616 77.319 77.318 77.319V83.547c-42.702 0-77.318 34.617-77.318 77.319z" fill="#44c4a1"/><path d="M117.966 83.547v154.638c42.703 0 77.321-34.616 77.321-77.319s-34.618-77.319-77.321-77.319z" fill="#3ea69b"/><path d="M99.015 206.334a11.162 11.162 0 0 1-8.519-3.943L65.68 173.156c-3.996-4.707-3.422-11.762 1.288-15.756 4.716-3.99 11.762-3.406 15.751 1.288l17.034 20.066 54.146-53.251c4.405-4.336 11.477-4.268 15.805.13 4.328 4.402 4.268 11.478-.13 15.805l-62.721 61.687a11.184 11.184 0 0 1-7.838 3.209z" fill="#31978c"/><path d="M99.015 199.442a11.158 11.158 0 0 1-8.519-3.944L65.68 166.264c-3.996-4.708-3.422-11.762 1.288-15.757 4.716-3.989 11.762-3.405 15.751 1.289l17.034 20.065 54.146-53.251c4.405-4.336 11.477-4.267 15.805.131 4.328 4.401 4.268 11.477-.13 15.806l-62.721 61.687a11.188 11.188 0 0 1-7.838 3.208z" fill="#fff"/></svg>