<?xml version="1.0" encoding="iso-8859-1"?>
<!-- Generator: Adobe Illustrator 19.0.0, SVG Export Plug-In . SVG Version: 6.00 Build 0)  -->
<svg version="1.1" id="Layer_1" xmlns="http://www.w3.org/2000/svg" xmlns:xlink="http://www.w3.org/1999/xlink" x="0px" y="0px"
	 viewBox="0 0 480 480" style="enable-background:new 0 0 480 480;" xml:space="preserve">
<path style="fill:#FF8A5B;" d="M336,424v-48v-48v-48c0-26.512-42.984-48-96-48s-96,21.488-96,48v48v48v48c0,26.512,42.984,48,96,48
	S336,450.512,336,424z"/>
<path style="fill:#FCEADE;" d="M144,168h96h96c26.512,0,48-21.488,48-48s-21.488-48-48-48c-2.744,0-5.416,0.28-8.04,0.728
	C327.968,72.48,328,72.248,328,72c0-35.344-28.656-64-64-64c-25.176,0-46.896,14.576-57.344,35.712
	C202.248,41.416,197.312,40,192,40c-17.672,0-32,14.328-32,32c0,0.992,0.2,1.928,0.288,2.896C155.2,73.056,149.728,72,144,72
	c-26.512,0-48,21.488-48,48S117.488,168,144,168z"/>
<g>
	<path style="fill:#2B2D42;" d="M88,120c0,30.88,25.12,56,56,56h88v48.208c-54.424,2.144-96,25.84-96,55.792v48v48v48
		c0,31.4,45.68,56,104,56s104-24.6,104-56v-48v-48v-48c0-29.944-41.576-53.648-96-55.792V176h88c30.88,0,56-25.12,56-56
		s-25.12-56-56-56c-0.152,0-0.296,0-0.44,0C331.568,28.048,301,0,264,0c-25.04,0-47.752,12.72-60.88,33.656
		C199.48,32.552,195.76,32,192,32c-19.56,0-35.888,14.112-39.336,32.688C149.8,64.232,146.904,64,144,64C113.12,64,88,89.12,88,120z
		 M240,464c-51.856,0-88-21.08-88-40v-17.848C170.256,421.784,202.472,432,240,432s69.744-10.216,88-25.848V424
		C328,442.92,291.856,464,240,464z M240,416c-51.856,0-88-21.08-88-40v-17.848C170.256,373.784,202.472,384,240,384
		s69.744-10.216,88-25.848V376C328,394.92,291.856,416,240,416z M240,368c-51.856,0-88-21.08-88-40v-17.848
		C170.256,325.784,202.472,336,240,336s69.744-10.216,88-25.848V328C328,346.92,291.856,368,240,368z M328,280
		c0,18.92-36.144,40-88,40s-88-21.08-88-40c0-17.928,32.472-37.76,80-39.8V272h-24v16h64v-16h-24v-31.8
		C295.528,242.24,328,262.072,328,280z M144,80c4.568,0,9.136,0.816,13.568,2.424c2.584,0.936,5.448,0.488,7.616-1.192
		c2.168-1.672,3.328-4.336,3.072-7.064L168,72c0-13.232,10.768-24,24-24c3.688,0,7.384,0.944,10.968,2.808
		c1.912,0.992,4.128,1.176,6.176,0.504c2.04-0.672,3.728-2.136,4.68-4.056C223.36,27.976,242.584,16,264,16
		c30.88,0,56,25.12,56,55.784c-0.016,0.192-0.04,0.752-0.04,0.944c0,2.352,1.04,4.592,2.84,6.112c1.8,1.512,4.176,2.168,6.504,1.776
		C331.728,80.2,333.92,80,336,80c22.056,0,40,17.944,40,40s-17.944,40-40,40H144c-22.056,0-40-17.944-40-40S121.944,80,144,80z"/>
	<rect x="360" y="360" style="fill:#2B2D42;" width="16" height="16"/>
	<rect x="392" y="360" style="fill:#2B2D42;" width="16" height="16"/>
	<rect x="424" y="360" style="fill:#2B2D42;" width="16" height="16"/>
	<rect x="456" y="360" style="fill:#2B2D42;" width="16" height="16"/>
	<rect x="456" y="328" style="fill:#2B2D42;" width="16" height="16"/>
	<rect x="456" y="296" style="fill:#2B2D42;" width="16" height="16"/>
	<rect x="456" y="264" style="fill:#2B2D42;" width="16" height="16"/>
	<rect x="456" y="232" style="fill:#2B2D42;" width="16" height="16"/>
	<rect x="456" y="200" style="fill:#2B2D42;" width="16" height="16"/>
	<rect x="456" y="168" style="fill:#2B2D42;" width="16" height="16"/>
	<rect x="456" y="136" style="fill:#2B2D42;" width="16" height="16"/>
	<rect x="456" y="104" style="fill:#2B2D42;" width="16" height="16"/>
	<rect x="456" y="72" style="fill:#2B2D42;" width="16" height="16"/>
	<rect x="456" y="40" style="fill:#2B2D42;" width="16" height="16"/>
	<rect x="424" y="40" style="fill:#2B2D42;" width="16" height="16"/>
	<rect x="392" y="40" style="fill:#2B2D42;" width="16" height="16"/>
	<rect x="360" y="40" style="fill:#2B2D42;" width="16" height="16"/>
	<rect x="104" y="360" style="fill:#2B2D42;" width="16" height="16"/>
	<rect x="72" y="360" style="fill:#2B2D42;" width="16" height="16"/>
	<rect x="40" y="360" style="fill:#2B2D42;" width="16" height="16"/>
	<rect x="8" y="360" style="fill:#2B2D42;" width="16" height="16"/>
	<rect x="8" y="328" style="fill:#2B2D42;" width="16" height="16"/>
	<rect x="8" y="296" style="fill:#2B2D42;" width="16" height="16"/>
	<rect x="8" y="264" style="fill:#2B2D42;" width="16" height="16"/>
	<rect x="8" y="232" style="fill:#2B2D42;" width="16" height="16"/>
	<rect x="8" y="200" style="fill:#2B2D42;" width="16" height="16"/>
	<rect x="8" y="168" style="fill:#2B2D42;" width="16" height="16"/>
	<rect x="8" y="136" style="fill:#2B2D42;" width="16" height="16"/>
	<rect x="8" y="104" style="fill:#2B2D42;" width="16" height="16"/>
	<rect x="8" y="72" style="fill:#2B2D42;" width="16" height="16"/>
	<rect x="8" y="40" style="fill:#2B2D42;" width="16" height="16"/>
	<rect x="40" y="40" style="fill:#2B2D42;" width="16" height="16"/>
	<rect x="72" y="40" style="fill:#2B2D42;" width="16" height="16"/>
	<rect x="104" y="40" style="fill:#2B2D42;" width="16" height="16"/>
	<rect x="328" y="96" style="fill:#2B2D42;" width="16" height="16"/>
	<rect x="328" y="128" style="fill:#2B2D42;" width="16" height="16"/>
	<rect x="296" y="128" style="fill:#2B2D42;" width="16" height="16"/>
</g>
<g>
</g>
<g>
</g>
<g>
</g>
<g>
</g>
<g>
</g>
<g>
</g>
<g>
</g>
<g>
</g>
<g>
</g>
<g>
</g>
<g>
</g>
<g>
</g>
<g>
</g>
<g>
</g>
<g>
</g>
</svg>
