<?xml version="1.0" encoding="iso-8859-1"?>
<!-- Generator: Adobe Illustrator 19.0.0, SVG Export Plug-In . SVG Version: 6.00 Build 0)  -->
<svg version="1.1" id="Layer_1" xmlns="http://www.w3.org/2000/svg" xmlns:xlink="http://www.w3.org/1999/xlink" x="0px" y="0px"
	 viewBox="0 0 512 512" style="enable-background:new 0 0 512 512;" xml:space="preserve">
<polygon style="fill:#E6E5E5;" points="343.524,444.182 224.01,444.182 234.854,383.249 332.644,383.249 "/>
<polygon style="fill:#CCCBCA;" points="343.524,444.182 332.644,383.249 234.854,383.249 313.068,444.182 "/>
<path style="fill:#D9D8D7;" d="M375.496,453.126H192.01v-3.359c0-1.421,0.522-2.852,1.628-3.963c1.101-1.075,2.55-1.626,3.945-1.626
	h172.319c1.408,0,2.883,0.55,3.978,1.626c1.055,1.111,1.615,2.542,1.615,3.963V453.126z"/>
<path style="fill:#E6E5E5;" d="M498.954,343.853v28.936c0,5.76-4.736,10.46-10.527,10.46H79.091c-5.729,0-10.486-4.7-10.486-10.46
	v-28.936H498.954z"/>
<path style="fill:#242D3C;" d="M498.954,343.853V69.091c0-5.737-4.726-10.483-10.527-10.483H79.076
	c-5.747,0-10.447,4.746-10.447,10.483v274.765h430.326V343.853z"/>
<rect x="90.317" y="80.347" style="fill:#FFFFFF;" width="386.867" height="241.741"/>
<g>
	<rect x="109.844" y="237.106" style="fill:#F15424;" width="102.912" height="65.457"/>
	<rect x="109.844" y="152.139" style="fill:#F15424;" width="102.912" height="65.449"/>
	<rect x="232.32" y="237.106" style="fill:#F15424;" width="102.912" height="65.457"/>
	<rect x="232.32" y="152.139" style="fill:#F15424;" width="102.912" height="65.449"/>
	<rect x="354.79" y="237.106" style="fill:#F15424;" width="102.912" height="65.457"/>
	<rect x="354.79" y="152.139" style="fill:#F15424;" width="102.912" height="65.449"/>
	<rect x="109.842" y="99.864" style="fill:#F15424;" width="347.878" height="32.727"/>
</g>
<path style="fill:#242D3C;" d="M180.664,436.566c0,9.111-7.452,16.561-16.558,16.561H16.566C7.465,453.126,0,445.677,0,436.566
	V207.715c0-9.116,7.468-16.563,16.566-16.563h147.538c9.106,0,16.558,7.447,16.558,16.563v228.851H180.664z"/>
<path style="fill:#3E4959;" d="M90.317,214.266c-3.638,0-6.52-2.9-6.52-6.559c0-3.574,2.883-6.548,6.52-6.548
	c3.612,0,6.579,2.972,6.579,6.548C96.896,211.365,93.926,214.266,90.317,214.266z"/>
<g>
	<path style="fill:#FFFFFF;" d="M90.335,210.008c-1.267,0-2.284-1.014-2.284-2.294c0-1.254,1.016-2.291,2.284-2.291
		c1.272,0,2.299,1.037,2.299,2.291C92.634,208.995,91.604,210.008,90.335,210.008z"/>
	<rect x="15.073" y="224.28" style="fill:#FFFFFF;" width="150.566" height="195.738"/>
</g>
<path style="fill:#3E4959;" d="M111.424,436.566c0-2.895-2.376-5.274-5.271-5.274H74.527c-2.893,0-5.274,2.378-5.274,5.274l0,0
	c0,2.893,2.378,5.274,5.274,5.274h31.626C109.051,441.839,111.424,439.459,111.424,436.566L111.424,436.566z"/>
<g>
	<rect x="27.249" y="236.44" style="fill:#F15424;" width="126.182" height="29.56"/>
	<rect x="27.249" y="278.68" style="fill:#F15424;" width="58.826" height="58.235"/>
	<rect x="94.612" y="278.68" style="fill:#F15424;" width="58.826" height="58.235"/>
	<rect x="27.249" y="349.592" style="fill:#F15424;" width="58.826" height="58.232"/>
	<rect x="94.612" y="349.592" style="fill:#F15424;" width="58.826" height="58.232"/>
</g>
<path style="fill:#242D3C;" d="M498.954,266.013h-75.84c-7.176,0-13.061,5.875-13.061,13.066v161.252
	c0,7.186,5.885,13.061,13.061,13.061h75.84c7.181,0,13.046-5.875,13.046-13.061V279.08C512,271.889,506.135,266.013,498.954,266.013
	z"/>
<rect x="417.434" y="294.348" style="fill:#FFFFFF;" width="87.194" height="130.714"/>
<g>
	<path style="fill:#3E4959;" d="M452.972,443.275c-1.958,0-3.528-1.587-3.528-3.517v-1.057c0-1.935,1.569-3.517,3.528-3.517h16.159
		c1.915,0,3.484,1.582,3.484,3.517v1.057c0,1.93-1.569,3.517-3.484,3.517H452.972z"/>
	<path style="fill:#3E4959;" d="M464.317,280.175c0,1.812-1.439,3.282-3.254,3.282c-1.818,0-3.318-1.469-3.318-3.282
		c0-1.81,1.5-3.3,3.318-3.3S464.317,278.365,464.317,280.175z"/>
</g>
<path style="fill:#242D3C;" d="M462.351,280.175c0,0.717-0.586,1.306-1.288,1.306c-0.763,0-1.349-0.586-1.349-1.306
	c0-0.722,0.586-1.324,1.349-1.324C461.765,278.854,462.351,279.453,462.351,280.175z"/>
<g>
	<rect x="424.064" y="300.952" style="fill:#F15424;" width="73.951" height="22.036"/>
	<rect x="424.064" y="329.624" style="fill:#F15424;" width="73.951" height="41.114"/>
	<rect x="424.064" y="377.343" style="fill:#F15424;" width="73.951" height="41.114"/>
</g>
<g>
</g>
<g>
</g>
<g>
</g>
<g>
</g>
<g>
</g>
<g>
</g>
<g>
</g>
<g>
</g>
<g>
</g>
<g>
</g>
<g>
</g>
<g>
</g>
<g>
</g>
<g>
</g>
<g>
</g>
</svg>
