<?xml version="1.0" encoding="iso-8859-1"?>
<!-- Generator: Adobe Illustrator 19.0.0, SVG Export Plug-In . SVG Version: 6.00 Build 0)  -->
<svg version="1.1" id="Layer_1" xmlns="http://www.w3.org/2000/svg" xmlns:xlink="http://www.w3.org/1999/xlink" x="0px" y="0px"
	 viewBox="0 0 491.52 491.52" style="enable-background:new 0 0 491.52 491.52;" xml:space="preserve">
<path style="fill:#3A556A;" d="M346.017,0H16.265C7.282,0,0,7.282,0,16.265v329.752c0,8.982,7.282,16.265,16.265,16.265h329.752
	c8.981,0,16.265-7.283,16.265-16.265V16.265C362.281,7.282,354.998,0,346.017,0z"/>
<g>
	<rect x="26.348" y="67.328" style="fill:#FFFFFF;" width="309.606" height="268.595"/>
	<rect x="26.348" y="23.368" style="fill:#FFFFFF;" width="221.389" height="18.724"/>
</g>
<circle style="fill:#FCD462;" cx="268.186" cy="32.732" r="9.364"/>
<circle style="fill:#44C4A1;" cx="297.37" cy="32.732" r="9.364"/>
<circle style="fill:#E56353;" cx="326.569" cy="32.732" r="9.364"/>
<rect x="242.074" y="295.941" style="fill:#3A556A;" width="230.912" height="121.201"/>
<path style="fill:#64798A;" d="M481.791,223.539H233.266c-5.373,0-9.728,4.364-9.728,9.748v62.939c0,5.383,4.355,9.748,9.728,9.748
	h248.525c5.373,0,9.729-4.365,9.729-9.748v-62.939C491.52,227.903,487.164,223.539,481.791,223.539z"/>
<rect x="355.738" y="238.182" style="fill:#44C4A1;" width="121.144" height="53.14"/>
<rect x="355.738" y="281.579" style="fill:#3EA69B;" width="121.144" height="9.743"/>
<ellipse style="fill:#E56353;" cx="259.794" cy="264.755" rx="13.788" ry="13.819"/>
<ellipse style="fill:#FCD462;" cx="308.275" cy="264.755" rx="13.788" ry="13.819"/>
<path style="fill:#64798A;" d="M481.791,316.312H233.266c-5.373,0-9.728,4.364-9.728,9.748v62.939c0,5.383,4.355,9.748,9.728,9.748
	h248.525c5.373,0,9.729-4.365,9.729-9.748V326.06C491.52,320.676,487.164,316.312,481.791,316.312z"/>
<rect x="355.738" y="330.957" style="fill:#44C4A1;" width="121.144" height="53.135"/>
<rect x="355.738" y="374.374" style="fill:#3EA69B;" width="121.144" height="9.743"/>
<ellipse style="fill:#E56353;" cx="259.794" cy="357.53" rx="13.788" ry="13.819"/>
<ellipse style="fill:#FCD462;" cx="308.275" cy="357.53" rx="13.788" ry="13.819"/>
<path style="fill:#64798A;" d="M481.791,409.085H233.266c-5.373,0-9.728,4.365-9.728,9.748v62.939c0,5.383,4.355,9.748,9.728,9.748
	h248.525c5.373,0,9.729-4.365,9.729-9.748v-62.939C491.52,413.45,487.164,409.085,481.791,409.085z"/>
<rect x="355.738" y="423.731" style="fill:#44C4A1;" width="121.144" height="53.135"/>
<rect x="355.738" y="467.149" style="fill:#3EA69B;" width="121.144" height="9.743"/>
<ellipse style="fill:#E56353;" cx="259.794" cy="450.304" rx="13.788" ry="13.819"/>
<ellipse style="fill:#FCD462;" cx="308.275" cy="450.304" rx="13.788" ry="13.819"/>
<path style="fill:#44C4A1;" d="M40.648,160.866c0,42.702,34.616,77.319,77.318,77.319V83.547
	C75.264,83.547,40.648,118.164,40.648,160.866z"/>
<path style="fill:#3EA69B;" d="M117.966,83.547v154.638c42.703,0,77.321-34.616,77.321-77.319S160.669,83.547,117.966,83.547z"/>
<path style="fill:#31978C;" d="M99.015,206.334c-0.169,0-0.332-0.003-0.502-0.011c-3.106-0.139-6.009-1.564-8.017-3.932
	L65.68,173.156c-3.996-4.707-3.422-11.762,1.288-15.756c4.716-3.99,11.762-3.406,15.751,1.288l17.034,20.066l54.146-53.251
	c4.405-4.336,11.477-4.268,15.805,0.13c4.328,4.402,4.268,11.478-0.13,15.805l-62.721,61.687
	C104.757,205.185,101.94,206.334,99.015,206.334z"/>
<path style="fill:#FFFFFF;" d="M99.015,199.442c-0.169,0-0.332-0.003-0.502-0.012c-3.106-0.139-6.009-1.563-8.017-3.932
	L65.68,166.264c-3.996-4.708-3.422-11.762,1.288-15.757c4.716-3.989,11.762-3.405,15.751,1.289l17.034,20.065l54.146-53.251
	c4.405-4.336,11.477-4.267,15.805,0.131c4.328,4.401,4.268,11.477-0.13,15.806l-62.721,61.687
	C104.757,198.293,101.94,199.442,99.015,199.442z"/>
<g>
</g>
<g>
</g>
<g>
</g>
<g>
</g>
<g>
</g>
<g>
</g>
<g>
</g>
<g>
</g>
<g>
</g>
<g>
</g>
<g>
</g>
<g>
</g>
<g>
</g>
<g>
</g>
<g>
</g>
</svg>
